<svg id="Layer_1" data-name="Layer 1" xmlns="http://www.w3.org/2000/svg" width="594.52" height="219.49" viewBox="0 0 594.52 219.49"><defs><style>.cls-1{fill:#fff;}</style></defs><path class="cls-1" d="M85.21,143.62c5.43,0,10.86,0,16.29,0,.92,0,1.2.22,1.19,1.17q-.07,6.14,0,12.28c0,.92-.24,1.2-1.18,1.2q-16.29,0-32.58,0c-1,0-1.29-.23-1.27-1.26.06-4.09,0-8.19,0-12.28,0-.89.26-1.12,1.13-1.11C74.26,143.64,79.74,143.62,85.21,143.62Z" transform="translate(0.52 -0.74)"/><path class="cls-1" d="M185.3,92c0-.4-.07-.8-.06-1.2,0-.67-.23-.9-.93-.9q-7.68,0-15.36,0c-.79,0-1,.28-.95,1,.05,1.58,0,3.17,0,4.89a4.61,4.61,0,0,1-1.67-1.09,20.29,20.29,0,0,0-4-2.9,29.61,29.61,0,0,0-18.94-3.42c-8.18,1.09-15.13,4.61-20.22,11.22-7.38,9.6-9.14,20.46-6.24,32.06,2.5,10,8.12,17.85,17.81,21.95,11.34,4.81,22.05,3.68,31.57-4.66a5,5,0,0,1,1.68-1.1,34.86,34.86,0,0,1,0,8.48c-.74,5.48-3.07,10-8.08,12.78a22,22,0,0,1-11.46,2.5,33.76,33.76,0,0,1-18.27-5.9c-.73-.49-1-.45-1.52.3q-3.73,5.85-7.6,11.6c-.47.7-.34,1,.32,1.42a46.8,46.8,0,0,0,24.73,8.18h5.63c1.95-.19,3.9-.35,5.84-.57,15.92-1.79,27.09-13.88,27.51-29.9.2-7.47.23-14.94.23-22.42C185.38,120.23,185.32,106.13,185.3,92Zm-25.62,45.74c-9,5.62-23.93,2.13-26.61-12.18a17,17,0,0,1-.31-3.53c0-10.3,7.61-18.29,17.36-18.41a17.61,17.61,0,0,1,18,18.37C167.9,128.64,165.44,134.14,159.68,137.76Z" transform="translate(0.52 -0.74)"/><path class="cls-1" d="M101.81,36.28c-4.68,0-9.35.06-14,0-1.06,0-1.21.33-1.21,1.28,0,8.81,0,17.62,0,26.43,0,2.4,0,2.41-2.19,1.3-6.83-3.43-14-5.16-21.66-4.07-17.82,2.54-30.3,16.32-31.21,34.37,0,.63,0,1.26,0,1.89.15,1.55.23,3.11.46,4.64,1.08,7,4.5,12.84,9.15,18,8.81,9.86,19.64,13.65,32.66,11a52.09,52.09,0,0,0,11.71-3.94c1-.47,1.32-.31,1.23.81s0,2.05,0,3.07c0,.71.25.9.93.9,4.5,0,9,0,13.49-.07,1.45,0,1.76-.36,1.76-1.86q0-46.33,0-92.66C102.91,36.5,102.68,36.27,101.81,36.28ZM67.25,115.89A19.62,19.62,0,0,1,47.83,96.55a19.41,19.41,0,0,1,38.81,0A19.58,19.58,0,0,1,67.25,115.89Z" transform="translate(0.52 -0.74)"/><path class="cls-1" d="M378.7,96.37c-13.61,0-23.59,11.19-23.59,25.4s10,25.55,23.59,25.55,23.43-11.49,23.43-25.55S392.31,96.37,378.7,96.37Z" transform="translate(0.52 -0.74)"/><path class="cls-1" d="M223.78.74H-.52v219.5H594V.74ZM219,215.43H4.29V5.55H219Zm80.2-69c9.52,0,18.45-3.17,24.49-8.92l8.92,10c-8.92,8.77-19.95,12.4-34.32,12.4-28.12,0-49.74-22.53-49.74-50.2,0-27.82,22.07-50.35,49.44-50.35,15.42,0,26.16,4.39,34.62,12.1L323.51,82A38.32,38.32,0,0,0,298,72.78c-19.35,0-34.93,16.48-34.93,36.89S278.61,146.41,299.17,146.41Zm116.42,11.65H402.13V146.72a30.13,30.13,0,0,1-25.4,13.15c-19.65,0-35.07-16.18-35.07-38.1,0-21.47,14.81-37.95,35.07-37.95,11,0,19.81,4.84,25.4,12.7V85.63h13.46Zm63.05-58.52a17.22,17.22,0,0,0-9.37-2.87c-8.77,0-14.22,7.56-14.22,19.66v41.73H441.6V85.63h13.45V94.7c3.93-6.65,10.13-10.88,18.15-10.88,4.53,0,8.46,1.06,11,3.17ZM526,159.87c-13.6,0-21.77-8-21.77-23.59V97.58H492.25v-12h12.09v-18h13.31v18h20.56v12H517.8v38.25c0,7.71,3.48,11.49,10,11.49,3.63,0,7.26-1.36,9.37-3.78l6.2,10.13C540,157,534,159.87,526,159.87Z" transform="translate(0.52 -0.74)"/></svg>