<svg id="Layer_1" data-name="Layer 1" xmlns="http://www.w3.org/2000/svg" xmlns:xlink="http://www.w3.org/1999/xlink" width="602.11235" height="440.46333" viewBox="0 0 602.11235 440.46333"><defs><style>.cls-1{fill:url(#linear-gradient);}.cls-2{fill:url(#linear-gradient-2);}.cls-3{fill:url(#linear-gradient-3);}.cls-4{fill:url(#linear-gradient-4);}.cls-5{fill:url(#linear-gradient-5);}.cls-6{fill:url(#linear-gradient-6);}.cls-7{fill:url(#linear-gradient-7);}.cls-8{fill:url(#linear-gradient-8);}.cls-9{fill:url(#linear-gradient-9);}.cls-10{fill:url(#linear-gradient-10);}.cls-11{fill:url(#linear-gradient-11);}.cls-12{fill:url(#linear-gradient-12);}.cls-13{fill:url(#linear-gradient-13);}</style><linearGradient id="linear-gradient" x1="230.10314" y1="682.82121" x2="1175.34792" y2="708.82795" gradientUnits="userSpaceOnUse"><stop offset="0" stop-color="#a27b2c"/><stop offset="0.14246" stop-color="#d2a74b"/><stop offset="0.26536" stop-color="#fdea93"/><stop offset="0.43296" stop-color="#e5bc68"/><stop offset="0.62291" stop-color="#ffd77a"/><stop offset="0.80726" stop-color="#b38d3e"/><stop offset="1" stop-color="#936f2a"/></linearGradient><linearGradient id="linear-gradient-2" x1="230.17607" y1="680.17023" x2="1175.42085" y2="706.17697" xlink:href="#linear-gradient"/><linearGradient id="linear-gradient-3" x1="230.27985" y1="676.39841" x2="1175.52463" y2="702.40514" xlink:href="#linear-gradient"/><linearGradient id="linear-gradient-4" x1="230.34466" y1="674.04262" x2="1175.58944" y2="700.04935" xlink:href="#linear-gradient"/><linearGradient id="linear-gradient-5" x1="56.45945" y1="551.24733" x2="1355.11941" y2="581.50502" xlink:href="#linear-gradient"/><linearGradient id="linear-gradient-6" x1="61.43527" y1="195.83872" x2="19.32189" y2="273.68467" xlink:href="#linear-gradient"/><linearGradient id="linear-gradient-7" x1="66.17541" y1="455.85481" x2="1364.83537" y2="486.1125" xlink:href="#linear-gradient"/><linearGradient id="linear-gradient-8" x1="66.10555" y1="458.85342" x2="1364.76551" y2="489.11111" xlink:href="#linear-gradient"/><linearGradient id="linear-gradient-9" x1="58.36831" y1="469.31902" x2="1357.02827" y2="499.5767" xlink:href="#linear-gradient"/><linearGradient id="linear-gradient-10" x1="452.66083" y1="238.24895" x2="429.41138" y2="898.17566" gradientTransform="translate(-4.14525 68.58844) rotate(-5.13898)" xlink:href="#linear-gradient"/><linearGradient id="linear-gradient-11" x1="357.0919" y1="234.88202" x2="333.84245" y2="894.80874" gradientTransform="translate(-4.14525 68.58844) rotate(-5.13898)" xlink:href="#linear-gradient"/><linearGradient id="linear-gradient-12" x1="425.22331" y1="237.28232" x2="401.97386" y2="897.20903" gradientTransform="translate(-4.14525 68.58844) rotate(-5.13898)" xlink:href="#linear-gradient"/><linearGradient id="linear-gradient-13" x1="430.71927" y1="237.47594" x2="407.46982" y2="897.40265" gradientTransform="translate(-4.14525 68.58844) rotate(-5.13898)" xlink:href="#linear-gradient"/></defs><path class="cls-1" d="M548.0021,725.40463l-34.32031-62.38086h-.50391q.50391,5.73046.50391,11.73681v50.644h-6.17188V657.84847h9.9502l32.62011,59.42334h.37793l32.62012-59.42334h9.69824v67.55616h-6.48632V674.20638a84.82313,84.82313,0,0,1,.75585-11.09033h-.5039l-34.44629,62.28858Z" transform="translate(-319.13389 -319.76833)"/><path class="cls-2" d="M678.33706,701.56136H640.93081l-12.84668,23.84327h-7.11621l37.02832-67.8335H662.09l36.27246,67.8335h-7.24219Zm-35.07617-4.251h32.93457l-12.53125-24.352q-1.57471-2.86451-3.77832-7.94776a61.917,61.917,0,0,1-3.71582,8.04053Z" transform="translate(-319.13389 -319.76833)"/><path class="cls-3" d="M799.97964,725.40463h-5.28906l-20.21485-52.12256q-2.51954-6.42261-3.77832-10.53565-1.0078,4.02027-2.86523,9.2417-1.85889,5.22217-20.30957,53.41651h-5.415l-25.31543-67.55616h6.73828l16.12109,43.52784q.94483,2.63379,1.7627,4.875.81885,2.24195,1.48047,4.20507.66065,1.96435,1.19629,3.78907.53466,1.82592.97558,3.67334a171.7293,171.7293,0,0,1,6.42383-19.084l15.74316-40.98633h7.11622l18.45117,47.04a138.84287,138.84287,0,0,1,4.59668,13.12305q.81885-3.32739,2.11035-7.06982,1.28906-3.74341,19.42676-53.09327H825.421Z" transform="translate(-319.13389 -319.76833)"/><path class="cls-4" d="M901.22085,701.56136H863.8146l-12.84668,23.84327h-7.11621L880.88,657.57113h4.09375l36.27246,67.8335h-7.24219Zm-35.07617-4.251h32.93457l-12.53125-24.352q-1.57471-2.86451-3.77832-7.94776a61.917,61.917,0,0,1-3.71582,8.04053Z" transform="translate(-319.13389 -319.76833)"/><path class="cls-5" d="M567.62535,557.0883q0-26.84546,12.155-40.726,12.153-13.87645,38.27594-13.87695a40.09114,40.09114,0,0,1,40.09106,40.09094v19.552h-90.522Zm-8.979-59.2279q-18.231,20.40747-18.231,57.777v31.344h117.37c0,12.818-8.277,26.411-15.411,30.52393q-10.70544,6.16515-29.569,6.16809l-89.891.19995-17.01,24.65307H620.60539q36.46344,0,52.245-21.8601c10.522-14.57495,12.064-26.793,12.14392-43.313v-34.973a70.92813,70.92813,0,0,0-70.928-70.929q-37.18945,0-55.42,20.40906" transform="translate(-319.13389 -319.76833)"/><polygon class="cls-6" points="0 288.029 32.694 233.358 39.516 233.358 24.883 284.778 0 288.029"/><path class="cls-7" d="M505.05359,598.7968v-117.033s8.9835-101.214-48.11675-158.31424c0,0,75.07574,34.20109,75.07574,128.7251V607.79723H514.054A9.00043,9.00043,0,0,1,505.05359,598.7968Z" transform="translate(-319.13389 -319.76833)"/><path class="cls-8" d="M346.09288,598.7968v-117.033s-8.9835-101.214,48.11675-158.31424c0,0-75.07574,34.20109-75.07574,128.7251V607.79723h17.95856A9.00043,9.00043,0,0,0,346.09288,598.7968Z" transform="translate(-319.13389 -319.76833)"/><path class="cls-9" d="M888.78457,502.40829q-18.22485-20.415-55.40991-20.41a70.92814,70.92814,0,0,0-70.92993,70.93v70.75H745.29458q-13.42492,0-19.67993-6.44-6.25488-6.435-6.26-21.14l-.25-147.62c0-38.27-12.31006-66.65-26.96-86.87-21.24-29.35-47.41-41.53-48.1001-41.84,36.58008,36.59,46.03,91.27,48.1001,125.84v149.49a8.41,8.41,0,0,0,.12988,1.51q.63026,16.05,4.5,26.52a34.36483,34.36483,0,0,0,16.69006,18.96q12.06006,6.435,33.83,6.44h159.73v-88.35Q907.02456,522.81334,888.78457,502.40829Zm-8.97,121.27h-90.71v-76.01a40.64615,40.64615,0,0,1,40.64-40.64q25.75508,0,37.91,13.87995,12.15,13.875,12.15991,40.73Z" transform="translate(-319.13389 -319.76833)"/><path class="cls-10" d="M463.89823,458.58281a10.54924,10.54924,0,0,0,.76041,4.95448c2.00486,7.02468,2.32427,14.29953,3.09521,21.47034,1.29314,12.0284,6.02021,22.48187,13.1968,31.96461a119.50855,119.50855,0,0,0,13.2665,14.74951,5.36185,5.36185,0,0,0,3.27291,1.8982c-1.18038-1.29011-2.33209-2.60789-3.54583-3.8658-7.24-7.50338-11.68512-16.641-15.308-26.244-4.81477-12.76249-7.88446-26.07011-12.12236-39.01268A20.61043,20.61043,0,0,0,463.89823,458.58281Z" transform="translate(-319.13389 -319.76833)"/><path class="cls-11" d="M451.17219,445.25569c-2.1091.4295-2.76544-.31712-3.38566-1.98419a14.32092,14.32092,0,0,0-1.77662-3.27189c-1.24366-1.74328-2.17343-1.74183-3.33427.06538a19.731,19.731,0,0,1-7.76613,7.23177,15.75942,15.75942,0,0,1-5.0841,1.29561,39.482,39.482,0,0,0,8.80124-6.03222c3.371-3.34872,5.262-7.08674,4.79981-12.0928-.5795-6.2728-.48428-12.60494-.90715-18.89649-.462-6.86054-2.92494-12.89849-8.29734-17.4456-7.384-6.24938-18.46215-5.40539-25.878,1.94051a21.80568,21.80568,0,0,0-6.68762,16.85462,118.91718,118.91718,0,0,0,1.48646,17.21173,20.163,20.163,0,0,0,3.00146,7.027c1.84858,3.03963,1.63372,3.96346-1.25741,5.91826-2.45158,1.65742-3.8315,3.829-3.52212,6.88283.11122,1.10294.5393,2.0598,1.73791,2.18047,7.50854.75632,14.03454,4.57441,21.0964,6.715a53.57917,53.57917,0,0,0,12.36858,2.36208c-.30512.94531-1.02772.99961-1.55712,1.1a35.63313,35.63313,0,0,1-12.0755.66647c-1.23529-.18685-2.60622-.27-1.93727-2.33222.36347-1.12091-.50652-1.76214-1.76445-1.89618a20.68307,20.68307,0,0,0-6.74738.29417,10.6695,10.6695,0,0,1-5.50508-.33994,71.30384,71.30384,0,0,1-10.11019-3.62735c-1.29483-.59634-2.15711-.74325-2.67329.88573a4.01743,4.01743,0,0,1-1.147,1.73115c-6.0469,5.24541-7.78726,12.50843-7.34681,19.73833,1.20158,19.71173-3.88385,38.12907-10.01864,56.44372-3.1198,9.31368-6.6157,18.48616-10.41274,27.54143a3.50481,3.50481,0,0,0,.49375,4.05663,47.16911,47.16911,0,0,1,5.14347,8.07019c.83455,1.59168,1.42887,1.95307,2.695.18783a280.80969,280.80969,0,0,0,22.883-38.28055c1.84576-3.69186,3.43006-7.49048,5.12051-11.2826a33.70536,33.70536,0,0,1-.69845,3.97747c-.4311,1.83978-.98661,3.648-1.58217,5.44178-4.02475,12.124-10.06816,23.27646-16.37229,34.33015-13.08894,22.95025-26.20107,45.90258-35.56215,70.72741-3.24495,8.60546-5.99678,17.383-8.38127,26.26383a14.315,14.315,0,0,1-.44546,1.37545c-.63974,2.3275-1.24,4.574-1.72654,6.4214l-.00066.00006-.01179.04715c-.017.063-.03446.12936-.051.191l.00073.0006-.23169.88527-.00229.00421q-.18138.69069-.3294,1.26214l-.0049.01981c-.33351,1.28322-.533,2.06606-.533,2.06606l-.00265.00024c-1.20058,4.77483-2.43934,9.54107-3.6351,14.31747-3.3117,13.22623-6.524,26.47357-8.04715,40.05132l-.002.00018-1.639,10.3656,2.52743-.2273a5.0392,5.0392,0,0,0,.59457-.02943q1.19907-.12687,2.39739-.23965l2.14639-.193a155.1796,155.1796,0,0,1,27.40992-.10425,100.95031,100.95031,0,0,1,21.59468,4.91658,288.062,288.062,0,0,0,39.11074,9.13914c7.44062,1.28616,14.90875,2.35074,22.41178,3.13494.05408.00716.10907.01691.1631.02341,8.43325.99582,16.47175,1.88819,16.47175,1.88819-2.33-.697-6.79977-4.00256-7.27886-4.3603a156.61439,156.61439,0,0,1-25.64445-26.757c-5.32254-7.14956-8.10647-15.37516-10.55814-23.77627a181.86713,181.86713,0,0,1-6.79933-76.4879c1.43591-14.095,2.49483-28.22953,4.52294-42.26153a215.89783,215.89783,0,0,1,7.07528-32.14663c3.44061-11.28783,5.38408-22.88861,7.00027-34.54813,1.30469-9.411,2.6795-18.81489,3.77285-28.25094.64638-5.57406.809-11.22352-.77451-16.7086-.53294-1.84794.08326-2.194,1.74268-2.50552,9.94854-1.86936,18.63147-6.03048,24.98063-14.2511a17.02437,17.02437,0,0,0,2.66634-4.90732C459.495,448.57349,456.02672,444.26731,451.17219,445.25569Zm-28.94935-9.62211c-3.55121-.71273-5.86-3.11977-7.79768-5.91757a44.51614,44.51614,0,0,1-6.18889-14.53956c-.347-1.34827.07257-8.5753,1.13241-9.344a20.4485,20.4485,0,0,1,11.62694-4.24285c4.51024-.761,8.92958.34194,13.26521,2.05164,1.40462.5544,2.03176,7.714,1.94976,9.35005a43.84733,43.84733,0,0,1-3.4942,14.93342,17.20193,17.20193,0,0,1-3.29865,5.34162A7.39331,7.39331,0,0,1,422.22284,435.63358ZM383.36136,580.68682c-6.85308,15.78729-12.81071,31.92693-18.67846,48.06317-5.85307,16.15095-10.78083,32.61482-15.08761,49.20923a460.228,460.228,0,0,0-9.99653,47.35986,90.88282,90.88282,0,0,1,24.19148.3502c9.02255,1.49461,18.20432,4.42519,25.50239,10.40306a58.46078,58.46078,0,0,0,22.783,12.89288,80.35212,80.35212,0,0,0,26.42876,3.33684,81.25518,81.25518,0,0,1-26.90219-1.57408,55.33451,55.33451,0,0,1-24.30378-12.09476c-6.85818-5.20911-15.51147-7.6488-24.10909-8.734a100.40538,100.40538,0,0,0-26.10422.413l-3.27776.49319.47428-3.20177a450.96426,450.96426,0,0,1,10.07247-51.01681c4.56279-16.719,9.74507-33.26452,15.845-49.46306,5.91752-16.2663,12.93178-32.10349,20.289-47.737a514.20062,514.20062,0,0,1,24.64769-45.55578C397.1236,549.11187,390.25044,564.92836,383.36136,580.68682Z" transform="translate(-319.13389 -319.76833)"/><path class="cls-12" d="M413.40605,647.69939c-.13479-8.88837.23456-17.75144.83306-26.60407.61923-9.15933,1.52078-18.29941,2.27222-27.45009a257.71239,257.71239,0,0,1,4.76224-33.7428c.683-3.141,1.12356-6.3799,2.81862-9.24331a285.09052,285.09052,0,0,0-2.22488,33.40951c-.00095.02647-.004.05216-.00462.07878-.16395,7.34056,1.02841,24.79623,1.63159,33.024a3.7128,3.7128,0,0,0-.00989.75375,266.34128,266.34128,0,0,0,4.12586,29.36834,133.10373,133.10373,0,0,0,9.79457,30.62606A150.71115,150.71115,0,0,0,473.752,726.41076c9.31163,8.32206,19.59635,14.99327,31.587,18.4744.65564.18139,1.97675.53868,3.55645.923.33088.07632.65882.15815.99231.22961a4.52251,4.52251,0,0,1,.954.22429c1.38008.3069,2.82239.59312,4.11521.78065,0,0-8.0662,1.54509-11.93407,2.03217-9.9099,1.4-19.843,1.67323-29.84225-.29015-15.51077-3.04569-28.202-10.64872-37.51142-23.46759-11.9181-16.41095-17.76419-35.19514-20.58236-55.0183A179.87965,179.87965,0,0,1,413.40605,647.69939Z" transform="translate(-319.13389 -319.76833)"/><path class="cls-13" d="M447.04277,641.43306l.00112-.00225.06611-.04825,1.27275-.951.00831-.00517c.15878-.122.318-.24539.47908-.372l.00451-.00542,1.85509-1.52973c.09123-.08342.18791-.15792.28465-.23239,5.99831-4.94777,11.18189-10.54134,14.0259-18.00645a49.90643,49.90643,0,0,0,2.78586-20.91515c-.805-14.2288-4.21417-27.99312-7.80644-41.70336-3.07795-11.75442-6.48234-23.42782-7.11918-35.78716a85.98365,85.98365,0,0,1,.48642-26.62526c1.16069-6.53358,2.70442-12.98882,6.7937-18.46986.1306-.17576.25449-.40388.39663-.60314l.0006-.00292a9.43513,9.43513,0,0,1,1.87359-1.98685l-.49706,2.73332-.00267.00354c-.03306.195-.07942.39017-.11394.56707-2.70443,13.45879.19407,26.30089,4.28356,39.00769,2.35632,7.33581,4.75841,14.65809,7.09649,22.00025,2.87725,9.05135,5.74931,18.09846,8.54854,27.17094,3.98835,12.94148,6.974,26.02014,4.94949,39.72323-1.22938,8.27865-4.18748,15.83393-9.74852,22.14288-6.84493,7.75372-15.55792,12.344-25.50747,14.62554l-.00076.0005a54.33563,54.33563,0,0,1-8.1332,1.76515S444.93468,642.96094,447.04277,641.43306Z" transform="translate(-319.13389 -319.76833)"/></svg>