<svg id="Layer_1" data-name="Layer 1" xmlns="http://www.w3.org/2000/svg" width="895" height="371" viewBox="0 0 895 371"><defs><style>.cls-1{fill:#eb1e39;}.cls-2{font-size:151.2px;fill:#fff;font-family:Volte-Medium, Volte;font-weight:500;}</style></defs><path class="cls-1" d="M329.78,80.74H105.48v219.5H700V80.74ZM325,295.43H110.29V85.55H325Z"/><path class="cls-1" d="M191.21,223.62c5.43,0,10.86,0,16.29,0,.92,0,1.2.22,1.19,1.17q-.08,6.14,0,12.28c0,.92-.24,1.2-1.18,1.2q-16.29,0-32.58,0c-1,0-1.29-.23-1.27-1.26.06-4.09.05-8.19,0-12.28,0-.89.26-1.12,1.13-1.11C180.26,223.64,185.74,223.62,191.21,223.62Z"/><path class="cls-1" d="M291.3,172c0-.4-.07-.8-.06-1.2,0-.67-.23-.9-.93-.9q-7.68,0-15.36,0c-.79,0-1,.28-.95,1,.05,1.58,0,3.17,0,4.89a4.61,4.61,0,0,1-1.67-1.09,20.29,20.29,0,0,0-4-2.9,29.61,29.61,0,0,0-18.94-3.42c-8.18,1.09-15.13,4.61-20.22,11.22-7.38,9.6-9.14,20.46-6.24,32.06,2.5,10,8.12,17.85,17.81,21.95,11.34,4.81,22,3.68,31.57-4.66a5,5,0,0,1,1.68-1.1,34.86,34.86,0,0,1,0,8.48c-.74,5.48-3.07,10-8.08,12.78a22,22,0,0,1-11.46,2.5,33.76,33.76,0,0,1-18.27-5.9c-.73-.49-1-.45-1.52.3q-3.73,5.85-7.6,11.6c-.47.7-.34,1,.32,1.42a46.8,46.8,0,0,0,24.73,8.18h5.63c2-.19,3.9-.35,5.84-.57,15.92-1.79,27.09-13.88,27.51-29.9.2-7.47.23-14.94.23-22.42C291.38,200.23,291.32,186.13,291.3,172Zm-25.62,45.74c-9,5.62-23.93,2.13-26.61-12.18a17,17,0,0,1-.31-3.53c0-10.3,7.61-18.29,17.36-18.41a17.61,17.61,0,0,1,18,18.37C273.9,208.64,271.44,214.14,265.68,217.76Z"/><path class="cls-1" d="M207.81,116.28c-4.68,0-9.35.06-14,0-1.06,0-1.21.33-1.21,1.28,0,8.81,0,17.62,0,26.43,0,2.4,0,2.41-2.19,1.3-6.83-3.43-14-5.16-21.66-4.07-17.82,2.54-30.3,16.32-31.21,34.37,0,.63,0,1.26,0,1.89.15,1.55.23,3.11.46,4.64,1.08,7,4.5,12.84,9.15,18,8.81,9.86,19.64,13.65,32.66,11a52.09,52.09,0,0,0,11.71-3.94c1-.47,1.32-.31,1.23.81s0,2.05,0,3.07c0,.71.25.9.93.9,4.5,0,9,0,13.49-.07,1.45,0,1.76-.36,1.76-1.86q0-46.33,0-92.66C208.91,116.5,208.68,116.27,207.81,116.28Zm-34.56,79.61a19.62,19.62,0,0,1-19.42-19.34,19.41,19.41,0,0,1,38.81,0A19.58,19.58,0,0,1,173.25,195.89Z"/><text class="cls-2" transform="translate(346.2 238.06)">Cart</text></svg>